<mxfile host="app.diagrams.net" modified="2024-03-14T10:21:27.630Z" agent="Mozilla/5.0 (Windows NT 10.0; Win64; x64) AppleWebKit/537.36 (KHTML, like Gecko) Chrome/122.0.0.0 Safari/537.36 Edg/122.0.0.0" etag="DokNA4GNPYm6AF9tunTL" version="24.0.2" type="device">
  <diagram name="PÃ¡gina-1" id="xXHqsQ8EC16fY9_77AUq">
    <mxGraphModel dx="956" dy="541" grid="1" gridSize="10" guides="1" tooltips="1" connect="1" arrows="1" fold="1" page="1" pageScale="1" pageWidth="827" pageHeight="1169" math="0" shadow="0">
      <root>
        <mxCell id="0" />
        <mxCell id="1" parent="0" />
        <mxCell id="JFK2eut7YUxlIdceK1J--1" value="Applications" style="rounded=0;whiteSpace=wrap;html=1;" vertex="1" parent="1">
          <mxGeometry x="270" y="290" width="120" height="40" as="geometry" />
        </mxCell>
        <mxCell id="JFK2eut7YUxlIdceK1J--2" value="Utilities" style="rounded=0;whiteSpace=wrap;html=1;" vertex="1" parent="1">
          <mxGeometry x="270" y="330" width="170" height="40" as="geometry" />
        </mxCell>
        <mxCell id="JFK2eut7YUxlIdceK1J--3" value="Operating System" style="rounded=0;whiteSpace=wrap;html=1;" vertex="1" parent="1">
          <mxGeometry x="270" y="370" width="220" height="40" as="geometry" />
        </mxCell>
        <mxCell id="JFK2eut7YUxlIdceK1J--4" value="Hardware" style="rounded=0;whiteSpace=wrap;html=1;" vertex="1" parent="1">
          <mxGeometry x="270" y="410" width="260" height="40" as="geometry" />
        </mxCell>
        <mxCell id="JFK2eut7YUxlIdceK1J--8" style="edgeStyle=orthogonalEdgeStyle;rounded=0;orthogonalLoop=1;jettySize=auto;html=1;entryX=0.5;entryY=0;entryDx=0;entryDy=0;" edge="1" parent="1" source="JFK2eut7YUxlIdceK1J--6" target="JFK2eut7YUxlIdceK1J--1">
          <mxGeometry relative="1" as="geometry" />
        </mxCell>
        <mxCell id="JFK2eut7YUxlIdceK1J--6" value="Final user" style="text;html=1;align=center;verticalAlign=middle;whiteSpace=wrap;rounded=0;" vertex="1" parent="1">
          <mxGeometry x="300" y="230" width="60" height="30" as="geometry" />
        </mxCell>
        <mxCell id="JFK2eut7YUxlIdceK1J--9" value="Programmer" style="text;html=1;align=center;verticalAlign=middle;whiteSpace=wrap;rounded=0;" vertex="1" parent="1">
          <mxGeometry x="390" y="240" width="60" height="30" as="geometry" />
        </mxCell>
        <mxCell id="JFK2eut7YUxlIdceK1J--11" style="edgeStyle=orthogonalEdgeStyle;rounded=0;orthogonalLoop=1;jettySize=auto;html=1;entryX=0.882;entryY=-0.051;entryDx=0;entryDy=0;entryPerimeter=0;" edge="1" parent="1" source="JFK2eut7YUxlIdceK1J--9" target="JFK2eut7YUxlIdceK1J--2">
          <mxGeometry relative="1" as="geometry" />
        </mxCell>
        <mxCell id="JFK2eut7YUxlIdceK1J--12" value="OS designer" style="text;html=1;align=center;verticalAlign=middle;whiteSpace=wrap;rounded=0;" vertex="1" parent="1">
          <mxGeometry x="480" y="290" width="80" height="30" as="geometry" />
        </mxCell>
        <mxCell id="JFK2eut7YUxlIdceK1J--13" style="edgeStyle=orthogonalEdgeStyle;rounded=0;orthogonalLoop=1;jettySize=auto;html=1;exitX=0.5;exitY=1;exitDx=0;exitDy=0;entryX=0.894;entryY=0.035;entryDx=0;entryDy=0;entryPerimeter=0;" edge="1" parent="1" source="JFK2eut7YUxlIdceK1J--9" target="JFK2eut7YUxlIdceK1J--3">
          <mxGeometry relative="1" as="geometry">
            <Array as="points">
              <mxPoint x="420" y="300" />
              <mxPoint x="467" y="300" />
            </Array>
          </mxGeometry>
        </mxCell>
        <mxCell id="JFK2eut7YUxlIdceK1J--14" style="edgeStyle=orthogonalEdgeStyle;rounded=0;orthogonalLoop=1;jettySize=auto;html=1;entryX=0.961;entryY=-0.068;entryDx=0;entryDy=0;entryPerimeter=0;" edge="1" parent="1" source="JFK2eut7YUxlIdceK1J--12" target="JFK2eut7YUxlIdceK1J--4">
          <mxGeometry relative="1" as="geometry" />
        </mxCell>
      </root>
    </mxGraphModel>
  </diagram>
</mxfile>
